/* XPM */
static char *_0219ee9d10140fbbc14baa0d7f73386xqQRpTqDZxH9XvfW[] = {
/* columns rows colors chars-per-pixel */
"100 100 55 1 ",
"  c #372522",
". c #392623",
"X c #3D2924",
"o c #422C26",
"O c #462E28",
"+ c #482F29",
"@ c #4D322B",
"# c #51352D",
"$ c #52342D",
"% c #53352D",
"& c #52362D",
"* c #52352E",
"= c #50362E",
"- c #50372E",
"; c #51372F",
": c #53372F",
"> c #54352E",
", c #54362E",
"< c #55372F",
"1 c #52392F",
"2 c #54382F",
"3 c #55392F",
"4 c #533A30",
"5 c #573930",
"6 c #573A30",
"7 c #553B32",
"8 c #573D32",
"9 c #583B32",
"0 c #593D32",
"q c #583D33",
"w c #5A3C32",
"e c #5A3C33",
"r c #5A3D33",
"t c #5B3F33",
"y c #5C3F35",
"u c #5B4034",
"i c #5B4135",
"p c #5B4236",
"a c #5C4034",
"s c #5C4035",
"d c #5C4237",
"f c #5F4336",
"g c #5D4437",
"h c #5F4437",
"j c #5F4338",
"k c #5F4538",
"l c #604437",
"z c #604638",
"x c #624739",
"c c #61483A",
"v c #63483B",
"b c #64493B",
"n c #63493C",
"m c #64493C",
"M c #644B3D",
/* pixels */
"#####5znzs<#@OXoo###szknzvzt#####@O.........X@####@###########@o......O@#####@X.........+#####@@X...",
"#@###9znzs##@X..o@#,ybnvmmzt#####@O..  ......+################@o  . ..O@##@##O........ X+#####@@... ",
"2,,,55zlzt#@@XX.o@@#tlzkzzkr5##5,#@X.XXX.....O@@@########@@###@OXXXX.Xo@#####@XXXXXXX..XO@#@@@@OXX.X",
"ssssrtttt,OOoo@O+Ooo#2#544#5rssyt9,+OO@oOX...XoO@#######@oO@##@@OO+O@O@@##9yt@O+OOOO+o++OoooOOOoOOO@",
"vvkvkk2#@O. X@##+X .......X#kvvvmms,#####+X... .X@######o.Xo#############9lbbs########4@o... ..o@#5i",
"vvvvvh2#@O..X@##+....X.....#knvvbzs######+......X@####@@X .o###@##@####@@#sbbs######@##@o......o@#5s",
"vkvkvh82<@XXo@##OoXX....XXo4knnvbzs######+..... X@@#@@@@oXXo###29555,21t59sszt#########@O......o#59s",
"vvvvvvihr9@@@@###@++o. .+@@tvzznnzs#@####+X ....X@##@XXO+O@@###tskslslihkyyt55##4@#@####o .....@rkjz",
"kvkvvvvvzs##,#######o..o###invvvzzs###@##O......X@##@. X@######ynnvvvvMMbv2#@#@@##@####@O......#zmzn",
"vvvvvkvvzs##########oX.O###ivvzvmzs######@X.....X@#,o..X@#####,tnnvvvvvkvst####1#######@O......@lmzn",
"hhvvkzvvz9@O+OO@####+oooO++1tsshyystt5###@ooooXoo###@ooo@###@O@2rsszvkzvvl5##2tt9trtt###@OooX..@rssz",
"11hvvnvnz<XXX XX+@@#@@@+XXX@252,55yzvs5##@@@@@@@@####@@@###@XXo@#5tjvvnvvxt#@8hhkzzzs####@@+X..o@58s",
"@#ybmvvnl#. ..  o######@.. O####@#thmvt$#######2,#########@O. XO##,lnnbmvlt@#uvvvvnvj1#####@X..X@#5s",
"1#sbmzkzy#X.....o@#####@o.X+####45iszl9@@@###@@@@@@@######@+. Xo@@,rzzlshu9@@2hvvvkvk5,1###@O.Xo@@#r",
"sslbzky95@......o@#####@+++@##,sssst9,@oo+@##@oXoooO@@#####@...Xoo@599##@OOoO1lvvvvnzzyy5###@@+OoXO@",
"bvlvns5##O......o@############,smzs5#@o..o@##o......@1####@@......X+,#OX.....@svznkvmzmkr@###@@@X.X@",
"bbvvvh5##o. .   o@######1#####,zxva&#@o  o@##o......+1#@##@@. . . X@##o...   #svvvvvzvzzt#####@@X XO",
"hsitt1@@+oooXooX+####@##@######ila6@@+o..o@##O......+######@oXXooXo+@+oX.... @tljkvkmvvz85@####@oXo@",
"5#@oooXXoo@@@@+@#############@#562@X.X...o@#@OX ....@#######+@@@@@@oXX...... o#24svvvvvzt@#@####@@@#",
"#@o . . Xo@######@##############&@+......o@##o......o1###########@@o ....... O@##zvvvvnzt@###@#4####",
"4@X.....Xo##@#4@@#######@4#######@oX ..  o@&#o......+,############@o........ o###izmznvkr#@####@####",
"oo..... Xo##1trdsius############&#oX Xo++@###@++OOo@##@####@Ooooooooo+oo+oOoooooo@@@4tt55###########",
".........o@@,kznvvbl2#######@1@##@+. X+##&#####@@#@########@X.XX..X+######@$#+X.X.XXo#####@##@####@#",
".........o##tlvzvvbb2#####@#######oX..+##@########1########+. ....X@$#######,+X .. .X@###########:##",
".........O5#rzkmhvvh9#######55####+o.oo#@#########@@###@###@XX.X..o+###@#@4@,o......X@4####@#@@#@#@#",
"#@X.... X@sznmnzvvvv,###@##tkki5@####@oXoo@#####@oXo@#######@@@###+o....Xo@##@......X######@OXX..Xo@",
"#@o ... X@zmkzkvvvvk9######tvvk5&@###@o..o@##@##@X..+#############+o.. ..X@@,+......X######@X . ..X+",
"##o..X. X#znvvvvvvkv2######snvk2######o..o@#####@X..o1######$$%##,+X.... X@@@+X.....X@#####@o.... X+",
"581@@@Oo@5zvvvjnkhaa,####@,yblht85tu62@oo@@####,@X. O###26u399t99t#o .....o+o+ooo...o@##1t55@ooX. X+",
"vmzzki,#4rmmnzvvi1#########sbbvvnvvkblt%########@.. O##2avvMbzvbbmtO ........o##@o..X###tvvi5##o. .+",
"vzbvvs4##tzznzmvs##########rvvvvzmvvbl6#########@X..O##,lbvkvvvlzmto ........o@#,o..X##5svvl8##+X .+",
"zbvvzj2@#ylzjjzzt1###@@@@@#tznvvznxllat####@##2,@oXX@##2sbvvkvbbvvr@X.......Xo@@@oXXo##1ivvz###OoXo@",
"vvzvms9#22,t8t2t2###@oooooo5zvvbmzlt512######<ylr@@+@###zmmmmvvvvvs#@OX...o@@OoooO@+@ttrhvkh8@#@@@@O",
"vvnvbs#@##@@@#@@###@o.   ..1zvvmmzs,#@#######yzmk,#####,zmzmvvvkvbs8#@oX.X@##@.  @##5knnvvvht@##@#@X",
"vvzmzs,#############o.....X1lvzmmzs##########szvk,###@##ynzzvvvzmnk8#@o..XO@#@...@@#2kvvvvns8###@#@o",
"kvzlsk992#####1@###@o. ...X@thsisst###@O+#,9trzly######5szlykvnzssy5##@oXO###+X..oO@1jvvvvnk8@@###@o",
"vvi1,tjzla##########o. ....@4,5515,##@+X.@yvzr55########,229vnnr5::###@@@@###+....XX@kznznnj9@####@o",
"vkt@#2kmls###1##@###o...  .O#@@######@o .@ymnr#@#########@#,kzzi##@#########,+.... .oinnvnvl5####5@o",
"vvr#5tzlst#@@@@@####oX.XX.X+4######@@@o..+rlj94#####@@@@###5znst@@@@@######@#O.....X+rkzzzkj5@@##@@X",
"vblssssst#O@o+++@###@OooooO@#######o@oX..o@###@###@#@+@o@##,ts9@OO+OOO###@OOoX...oo+@5tiyii5@OOOOoXX",
"vvvvls5##@......o@######@####@###@+.......X..+@:####+..X@#####@O......O@#@o......@@###4#1##@o.......",
"vvvvbl5#@o. ....o@#####@#######@#@o.  ....  .o@#@#@#O...@##@##@o......o@#@o..... @####@####@X.......",
"hhitt8@@@o......o@@#####@@@45r959,@oXX...XXoo@55t<t5@ooX@#####@O .XXXo@59#o......@4#####@@@oX......X",
"12@oooo.XX......o######@oXo@rzkjzz#@@@o. oO@@5yksjzr5@+@####@#@o..XO@@5sjrO..... @#@####@XoX......XO",
"1@o .. ........ o@####1@..X4vkvvbzy,#@O .o@##yknmvvvy,########@o. X@#<rvnjO......@####@@o.........XO",
"@@o.. ......... o@#####@X..4vvvvmz9##@o..o@#5ykvmvvvy###@##@##@o .o@@#iknjOX ....@#####@o .........@",
"##@ooX......XooO@###+++ooo@8vvnvmv9@@OX. O5ttkzvvvkvs,##ttrr5@#@OO@5rrkvnk5:<@oOo@#####@o.........X@",
"###@@OX.... X+@@###@oXXo@@@imkzvzz9X.... @izknmnkvvny###jkzs:###@@<yvzmmzzkjst@@#######@o........ o:",
"#####@......X@@##@#@o..o##,rmnmvnj7......@hMvkvvvvkMi&##lbzy######5jnnvvvnnnnj########@@O........ o,",
"####@@X....XO@######OX.o###rzzzznk#......@iMvvvvvkMMu1#1avzs,###@#<jzknzkkkvvt#@@######@O......X..o5",
"ls9####@##9ttjzyt<#@@@@####<<<#@oOoX.... @ivvkvvMMkkvkhut,9###@OoXooOO#55<,<9@oXo@#######@@+@++o@@4r",
"vht@####,tlzjzmzy,####@#@#####@o... .... @ivvvnzkkMMvvvh5#####@o.....XO#:@::<+...@1@#1#####@#@##@@4j",
"vv6@####4tkvnmkny5############@..........@gMnznvvMvvvvkh2###@2@O......O@:####+..X@##############@#5r",
"hu6######rvmzmvne@@@#99ttr5,#@+o........ +8izzzmvflau3u3###@@@O.......X++@@##@OooOO@@@@@@######@@@@9",
"1,#####@#tzmkvvv:o.X9lnznmzt<#OX .......Xo@45szvh22&+.oo@##+X  ..........o+#####@o.  ...O######O. o@",
"########,9nnzvvv:o Xeznmzmvr##@X ........o@@#yzmh&&#+ ..@##O.............X+######o ....X+######o..XO",
"########<rhzzksz#oXXtznzmzvy#@#o........ o+##tzzs,##+X.X@,@@XX...........X@@###@@X......o,####@@X..O",
"###@#,tsyitt8#@@@@@@rzmzzvvy,##@@Oo... ..XXo@#5t9###@++@@#5@@OOX......oO@@@##@Ooo......X+#####@@X..X",
"@####9kmns,#@o.Xo@##yzmmnnzy####::O.. ..... .@##@######,#####,@o......@@#####+X  .......@######+....",
"#####9kvzy##+X..o@##szznzzz9,###@@O.. X......o@###########@###@o......O@####,+X........Xo#@###@@X...",
"##,,,9sjjr@@OoXoO@@@9iyyysrr9,##<#@ooooXX....o+@@1######@++@##@+oXooXO@@##,,,@XoXooooooXo@@@@@@oooXo",
"zzllks554@X.oO@@oo.ooOooo+O:yzjzjjr@O:@@@oX...XXo@#####@OXoO@4#@@@@@@@@###sslt@@@@@@@@@@o.XX.oXo@@@8",
"vvvvns5@@o. X@:#oX ..     .4zmnmmzy:##:##OX.... .@#####@X .o####,#######@6lbbs#11#####1@o......o@#5k",
"vvvvzk5#@@..o@##+X........X4nnzvvzr:##@:#OX.....X@##@#@+o.Xo@###2#,##2#,#2uvbt#@###@###@o ... .o#@ti",
"vvknnkit9#OoO@##@ooo...Xoo+5nvknmzs######+......X@##@Oo+ooo@#@#trtrrreerrrysst#########@o......@5rsz",
"vknzknzzkt@#@<######o. X@##ynvzzzzs#@####+..... X@##+X.X@@####,szkzvvvvzvl9######@#####@O......@yvnz",
"vvvvzmnbny<#:###@###o. o@#:ymvmnmns##@##@+X.... .@#1O..X@5####5rmzmvkvvvmz9####@#@#@@##@o . ...@kmvv",
"kkvvmmmzzr@@@@@@####OXXoO@@9zzzzzzs59###4@X..XXXo@##@XXo@###@@#tzzzznnnkzl9###,5t,99,###@XXX...@izzn",
"ttlmzzvvz5Oooooo+###+++oXoO@9rrrttryrt,##@@o+++o@###@@O@###@ooo#5trznvkvnz9#@5rjrshht@###++Oo .o4tiz",
"@@rmmvzvz#..... o@####:@X .O###@##rnmht######@#########@##@OX.Xo##<invvvnz9#@rvvnnkvh4#####@o .o@#:r",
"@#izvnnns@......o+,###,@X .O######yzmzt@##########@########o..X@##5jvvvvnz5:#rzvvvvvh5#@###+o .o@@5r",
"tthvvkkrt@......o#,####@OoO@###9rrysyr#OO@@##@++OO@+@##@###@...X+O@8ri844#@Oo4zvvkvkztt85###+ooO+O@4",
"kzzmvk5<#+......o@######@@@####szzl,,#OXoo@#@+XXX.X.O#####@@....X.o@9,@oXX.X.@zvvkvkzkzlt@##@@@@XXo@",
"nzvmzj4@@+..... o@############<zmzy##@o .o@##o..... O4####@@..... X@#@o. ... @lmvvvvnvmzt######+. .@",
"vzzzkr:@@OX.....+@#@###########ybzt,#@o..o@##o..... O#####@@X.....X@##O......@szkvvvzmvz5##@###+X X@",
"r9<@@@OOooO+++@@@##############tt9#oOoX..o@4@O......O5#@###@OO+OOO+ooo.......Oesrkvvvvvzt@####@#@o@#",
":#O.XX..Xo@#@#@#################1#OX.... o@##oX.....O#######@@@#@#@o........ o@#4lbvnzmkt#######@@##",
"#@o  .. .O#####@#@##@#############o.. .. o@#@o. ....@########<###<@X   ..  ..o@##svbmnmzr#@4########",
"@OX.....Xo####9954<<4###@########@o...XXXo###+ooXXXo@######4@@@@@@@oXXXXXXXXXo+@@1iiskzy8@#@#@#@####",
".X.......O@#,szzzvvz9########@####+..X+@@#####@@@@@@@@#####@XXX.X.XO@@@@@@@@@+oXooXXO#,5#######5####",
"........Xo@#8hmnmvvk5@##@###@####@+...O#######@###########@@X......@###@##@##o......X#1####@######@#",
"........Xo#@5knzzvzk5######@,####@+X.X+#########1##@#@#1###@X.....X@@,###1##,@......X##@#####5######",
"Oo.......@irinvkvvMm5#@##@55tir,##@+++OOO@@#####@@++@##@####++@o++OoOOOOO@@##@......X####1#@@++oOO+@",
"#@X.....X@vvvvvvvvvk9######tknk5#####@o .o@#####@X .+5####@#1#####@X .   X@#1o......X@###@#@X  . .XO",
"4@o.....X@zbvkvkkvnz<######snmz5#####@o..o@####<@X. O#############@X.... X+@,@......X@#####@X ....XO",
"::+ooXoXo1zbvmvvnzzr,######snzvi5,#,##@XoO@#####@X. O####,,,1&#,5#@o .....o@@oXXX...X#######@X....XO",
"jjjrt5@@#9zmzmznkt85,####@#szkvkkszsks#@@@###@##@X. O###tllshhhhjz5O .....XXXo@@@X .X###5kkt1@@X. XO",
"nnvnzs5#,szmmznmr4######:##smvvvvbmbmzt#########@.  O##2hbbbvvvMnmrO ....... o@#@o .o@##tmvh5#@@X X@",
"vknnkl4@,tlzzzzma2#@@@#@#@#izvznvvvzvht#@#######@XX.O##,zmvvvvkvzmr+......X..o@##o..o#@1rmkk8##@X.XO",
"vvnmzz<@#tssssyst,###@@@@@@immnznnzirt5#<####<5<#Ooo+##,ynvvvkMkzmr@XX....XoooOo@Oooo#58snvh5@#OOOOO",
"vvvmmi<#####,#2#####o... .X1vvvknzs####@####:rvvk#######jnzvvkvvvvj54@O...@@#@.X @##5kvvnnvht#@##@@o",
"kvkznr4#@#####@####@o......4vvmnmzs########@#yzvl,#####,knmbvvknmvz5#@O..XO#,@...@,,1vvknnvh5@####@o",
"vvhhlh9,,,#########@X.....X#hhhlkjr####@@#,<5yzky5#####,izlzzvmzkks5@#OX.o@##O...o@@4knvzmzj8#####@o",
"zzlttrssu5###@####1@o.....X@8t8tte5##@@oo@tsyyttr#######9r9yvmzsrrt:##@Oo@,#,@X...oo#dvvzmml5@1@@#@o",
"mzt@#9zbls1#########o......+#########@o  @rmnt:@@########@#tzmzt@#@##########+......Oivvmmmzt@####@o",
"mzt##9znva#########@X.... .+#########@o. @jmzr<#######@####5zmkt############,+......Oivvjvzz<#####@o",
"nvst5shli5@@OO+@@###OX.XXXo@#######@+oo..o#t5<######@@@@@@#5ylt,@+@+O@####+O+o...XXo@tiiyjrr#@O@OOOX",
"zmzkllt2#@ooX.XX@@##@@@@@@@@#####@@OXXX..Xooo@######@XXo@#@415#@XooXXo+##@oXXX...O@+@:5,555#OX.oX.X.",
"vvnmvs2@@O.. .. o@##########@####@o........ .O@#####O. .@#####@o .  ..O@#@o. ...X@######@#@@X ... ..",
"vnznbs2@@+..... o@###############@+..........o@####,@..X@#####@o......O@,@o......@#######4@@o ......"
};
